<svg width="14" height="14" viewBox="0 0 14 14" fill="none" xmlns="http://www.w3.org/2000/svg">
<path d="M5.60282 12.25C5.60282 12.3448 5.64986 12.4286 5.74395 12.5016L6.44959 13.0484C6.54368 13.1214 6.65188 13.1578 6.77419 13.1578C6.8965 13.1578 7.0047 13.1214 7.09879 13.0484L13.6754 7.95156C13.7695 7.87865 13.8165 7.79479 13.8165 7.7C13.8165 7.60521 13.7695 7.52135 13.6754 7.44844L7.09879 2.35156C7.0047 2.27865 6.8965 2.24219 6.77419 2.24219C6.65188 2.24219 6.54368 2.27865 6.44959 2.35156L5.74395 2.89844C5.64986 2.97135 5.60282 3.05521 5.60282 3.15C5.60282 3.24479 5.64986 3.32865 5.74395 3.40156L11.2903 7.7L5.74395 11.9984C5.64986 12.0714 5.60282 12.1552 5.60282 12.25ZM0.183464 12.25C0.183464 12.3448 0.230507 12.4286 0.324593 12.5016L1.03024 13.0484C1.12432 13.1214 1.23252 13.1578 1.35484 13.1578C1.47715 13.1578 1.58535 13.1214 1.67943 13.0484L8.25604 7.95156C8.35013 7.87865 8.39717 7.79479 8.39717 7.7C8.39717 7.60521 8.35013 7.52135 8.25604 7.44844L1.67943 2.35156C1.58535 2.27865 1.47715 2.24219 1.35484 2.24219C1.23252 2.24219 1.12432 2.27865 1.03024 2.35156L0.324593 2.89844C0.230507 2.97135 0.183464 3.05521 0.183464 3.15C0.183464 3.24479 0.230507 3.32865 0.324593 3.40156L5.87096 7.7L0.324593 11.9984C0.230507 12.0714 0.183464 12.1552 0.183464 12.25Z" fill="black"/>
</svg>
