<svg width="32" height="33" viewBox="0 0 32 33" fill="none" xmlns="http://www.w3.org/2000/svg">
<path d="M31.524 7.08269C30.4107 7.57602 29.2147 7.90935 27.9573 8.06002C29.2547 7.28374 30.2253 6.06198 30.688 4.62269C29.4691 5.34667 28.1351 5.85628 26.744 6.12935C25.8085 5.13051 24.5694 4.46846 23.2191 4.24599C21.8688 4.02352 20.4828 4.25308 19.2763 4.89902C18.0698 5.54497 17.1104 6.57117 16.5469 7.81829C15.9834 9.06542 15.8474 10.4637 16.16 11.796C13.6902 11.672 11.2742 11.0301 9.06856 9.91189C6.86296 8.7937 4.91712 7.22424 3.35733 5.30535C2.824 6.22535 2.51733 7.29202 2.51733 8.42802C2.51673 9.45068 2.76857 10.4577 3.2505 11.3597C3.73243 12.2617 4.42954 13.0307 5.28 13.5987C4.2937 13.5673 3.32916 13.3008 2.46666 12.8214V12.9014C2.46656 14.3357 2.96271 15.7259 3.87091 16.836C4.77911 17.9462 6.04342 18.7079 7.44933 18.992C6.53437 19.2396 5.57511 19.2761 4.644 19.0987C5.04066 20.3328 5.81332 21.4121 6.85382 22.1853C7.89431 22.9585 9.15055 23.3869 10.4467 23.4107C8.24644 25.1379 5.52918 26.0748 2.732 26.0707C2.2365 26.0708 1.74143 26.0419 1.24933 25.984C4.08863 27.8096 7.39378 28.7784 10.7693 28.7747C22.196 28.7747 28.4427 19.3107 28.4427 11.1027C28.4427 10.836 28.436 10.5667 28.424 10.3C29.6391 9.42132 30.6879 8.33322 31.5213 7.08669L31.524 7.08269Z" fill="white"/>
</svg>
