<svg width="25" height="24" viewBox="0 0 25 24" fill="none" xmlns="http://www.w3.org/2000/svg">
<path d="M18.207 12.293C18.1142 12.2 18.004 12.1263 17.8827 12.076C17.7614 12.0257 17.6313 11.9998 17.5 11.9998C17.3687 11.9998 17.2386 12.0257 17.1173 12.076C16.996 12.1263 16.8858 12.2 16.793 12.293L15.199 13.887C14.46 13.667 13.081 13.167 12.207 12.293C11.333 11.419 10.833 10.04 10.613 9.30096L12.207 7.70696C12.2999 7.61417 12.3737 7.50397 12.424 7.38265C12.4743 7.26134 12.5002 7.13129 12.5002 6.99996C12.5002 6.86862 12.4743 6.73858 12.424 6.61726C12.3737 6.49595 12.2999 6.38575 12.207 6.29296L8.207 2.29296C8.11421 2.20001 8.00401 2.12627 7.88269 2.07596C7.76138 2.02565 7.63133 1.99976 7.5 1.99976C7.36866 1.99976 7.23862 2.02565 7.1173 2.07596C6.99599 2.12627 6.88579 2.20001 6.793 2.29296L4.081 5.00496C3.701 5.38496 3.487 5.90696 3.495 6.43996C3.518 7.86396 3.895 12.81 7.793 16.708C11.691 20.606 16.637 20.982 18.062 21.006H18.09C18.618 21.006 19.117 20.798 19.495 20.42L22.207 17.708C22.2999 17.6152 22.3737 17.505 22.424 17.3837C22.4743 17.2623 22.5002 17.1323 22.5002 17.001C22.5002 16.8696 22.4743 16.7396 22.424 16.6183C22.3737 16.4969 22.2999 16.3867 22.207 16.294L18.207 12.293ZM18.08 19.005C16.832 18.984 12.562 18.649 9.207 15.293C5.841 11.927 5.515 7.64196 5.495 6.41896L7.5 4.41396L10.086 6.99996L8.793 8.29296C8.67546 8.41041 8.58904 8.55529 8.54155 8.71453C8.49406 8.87376 8.487 9.04231 8.521 9.20496C8.545 9.31996 9.132 12.047 10.792 13.707C12.452 15.367 15.179 15.954 15.294 15.978C15.4565 16.0129 15.6253 16.0064 15.7846 15.9591C15.944 15.9117 16.0889 15.825 16.206 15.707L17.5 14.414L20.086 17L18.08 19.005Z" fill="white"/>
</svg>
