<svg width="32" height="33" viewBox="0 0 32 33" fill="none" xmlns="http://www.w3.org/2000/svg">
<g clip-path="url(#clip0_5_215)">
<path d="M16 3.383C20.2721 3.383 20.7781 3.39925 22.4653 3.47613C24.0252 3.54737 24.8725 3.808 25.4364 4.02712C26.1831 4.31737 26.7161 4.66412 27.276 5.224C27.836 5.78387 28.1826 6.31687 28.4729 7.06362C28.692 7.6275 28.9526 8.47475 29.0239 10.0346C29.1007 11.7219 29.117 12.2279 29.117 16.5C29.117 20.7723 29.1007 21.2783 29.0239 22.9654C28.9526 24.5254 28.692 25.3725 28.4729 25.9364C28.1826 26.6831 27.8359 27.2162 27.276 27.7761C26.7161 28.336 26.1831 28.6828 25.4364 28.9729C24.8725 29.192 24.0252 29.4527 22.4653 29.5239C20.7784 29.6009 20.2724 29.6171 16 29.6171C11.7275 29.6171 11.2215 29.6009 9.53463 29.5239C7.97463 29.4526 7.1275 29.192 6.56362 28.9729C5.81687 28.6828 5.28375 28.336 4.72388 27.7761C4.164 27.2161 3.81725 26.6831 3.52712 25.9364C3.308 25.3726 3.04725 24.5254 2.97613 22.9654C2.89913 21.2783 2.88287 20.7723 2.88287 16.5C2.88287 12.2279 2.89913 11.7219 2.97613 10.0347C3.04737 8.47475 3.308 7.6275 3.52712 7.06362C3.81725 6.31687 4.164 5.78387 4.72388 5.224C5.28387 4.664 5.81687 4.31737 6.56362 4.02712C7.12737 3.808 7.97463 3.54737 9.53463 3.47613C11.2218 3.39925 11.7277 3.383 16 3.383ZM16 0.5C11.6546 0.5 11.1097 0.518375 9.40325 0.59625C7.70012 0.674 6.537 0.9445 5.51937 1.34C4.46712 1.74887 3.57487 2.296 2.68537 3.1855C1.79587 4.075 1.24887 4.96725 0.84 6.01937C0.444375 7.03712 0.174 8.20025 0.09625 9.90325C0.018375 11.6097 0 12.1546 0 16.5C0 20.8454 0.018375 21.3903 0.09625 23.0968C0.174 24.7999 0.444375 25.963 0.84 26.9806C1.24875 28.0327 1.79587 28.9251 2.68537 29.8146C3.57487 30.7041 4.46712 31.2511 5.51937 31.66C6.53712 32.0556 7.70012 32.326 9.40312 32.4037C11.1097 32.4816 11.6546 32.5 16 32.5C20.3454 32.5 20.8903 32.4816 22.5968 32.4037C24.2997 32.326 25.4629 32.0556 26.4805 31.66C27.5327 31.2512 28.425 30.7041 29.3145 29.8146C30.204 28.9251 30.7511 28.0329 31.16 26.9806C31.5555 25.9629 31.826 24.7999 31.9037 23.0969C31.9816 21.3902 32 20.8454 32 16.5C32 12.1546 31.9816 11.6097 31.9037 9.90325C31.826 8.20025 31.5555 7.03712 31.16 6.0195C30.7511 4.96725 30.204 4.075 29.3145 3.1855C28.425 2.296 27.5327 1.74875 26.4806 1.34C25.4629 0.9445 24.2997 0.674 22.5968 0.59625C20.8903 0.518375 20.3454 0.5 16 0.5ZM16 8.28375C11.4622 8.28375 7.78375 11.9625 7.78375 16.5C7.78375 21.0378 11.4622 24.7162 16 24.7162C20.5376 24.7162 24.2162 21.0378 24.2162 16.5C24.2162 11.9624 20.5376 8.28375 16 8.28375ZM16 21.8334C13.0545 21.8334 10.6666 19.4455 10.6666 16.5C10.6666 13.5545 13.0545 11.1666 16 11.1666C18.9455 11.1666 21.3334 13.5545 21.3334 16.5C21.3334 19.4455 18.9455 21.8334 16 21.8334ZM26.4608 7.95913C26.4608 9.01962 25.6012 9.87912 24.5408 9.87912C23.4804 9.87912 22.6208 9.01962 22.6208 7.95913C22.6208 6.89875 23.4804 6.03912 24.5408 6.03912C25.6012 6.03912 26.4608 6.89875 26.4608 7.95913Z" fill="white"/>
</g>
<defs>
<clipPath id="clip0_5_215">
<rect width="32" height="32" fill="white" transform="translate(0 0.5)"/>
</clipPath>
</defs>
</svg>
