<svg width="32" height="32" viewBox="0 0 32 32" fill="none" xmlns="http://www.w3.org/2000/svg">
<path d="M2.66634 25.3333V22.6667H29.333V25.3333H2.66634ZM4.19967 17.2667L2.46634 16.2667L3.59967 14.2667H1.33301V12.2667H3.59967L2.46634 10.3333L4.19967 9.33334L5.33301 11.2667L6.46634 9.33334L8.19967 10.3333L7.06634 12.2667H9.33301V14.2667H7.06634L8.19967 16.2667L6.46634 17.2667L5.33301 15.2667L4.19967 17.2667ZM14.8663 17.2667L13.133 16.2667L14.2663 14.2667H11.9997V12.2667H14.2663L13.133 10.3333L14.8663 9.33334L15.9997 11.2667L17.133 9.33334L18.8663 10.3333L17.733 12.2667H19.9997V14.2667H17.733L18.8663 16.2667L17.133 17.2667L15.9997 15.2667L14.8663 17.2667ZM25.533 17.2667L23.7997 16.2667L24.933 14.2667H22.6663V12.2667H24.933L23.7997 10.3333L25.533 9.33334L26.6663 11.2667L27.7997 9.33334L29.533 10.3333L28.3997 12.2667H30.6663V14.2667H28.3997L29.533 16.2667L27.7997 17.2667L26.6663 15.2667L25.533 17.2667Z" fill="white"/>
</svg>
